<?xml version="1.0" encoding="UTF-8"?>
<svg width="32px" height="32px" viewBox="0 0 32 32" version="1.1" xmlns="http://www.w3.org/2000/svg" xmlns:xlink="http://www.w3.org/1999/xlink">
    <!-- Generator: Sketch 57.1 (83088) - https://sketch.com -->
    <title>Icons/32/Close</title>
    <desc>Created with Sketch.</desc>
    <g id="Icons/32/Close" stroke="none" stroke-width="1" fill="none" fill-rule="evenodd">
        <rect id="Bounds" x="0" y="0" width="32" height="32"></rect>
        <path d="M17.9113162,16 L24.6072325,9.30408374 C25.1313645,8.77995172 25.1287183,7.92687249 24.6009229,7.3990771 C24.0694478,6.86760201 23.220227,6.86845682 22.6959163,7.39276754 L16,14.0886838 L9.30408374,7.39276754 C8.77995172,6.86863552 7.92687249,6.8712817 7.3990771,7.3990771 C6.86760201,7.93055219 6.86845682,8.77977302 7.39276754,9.30408374 L14.0886838,16 L7.39276754,22.6959163 C6.86863552,23.2200483 6.8712817,24.0731275 7.3990771,24.6009229 C7.93055219,25.132398 8.77977302,25.1315432 9.30408374,24.6072325 L16,17.9113162 L22.6959163,24.6072325 C23.2200483,25.1313645 24.0731275,25.1287183 24.6009229,24.6009229 C25.132398,24.0694478 25.1315432,23.220227 24.6072325,22.6959163 L17.9113162,16 Z" id="Close" fill="rgba(255,255,255,0.8)"></path>
    </g>
</svg>